<svg width="13" height="13" viewBox="0 0 13 13" fill="none" xmlns="http://www.w3.org/2000/svg">
<path d="M12.0131 6.02574L9.67904 8.03978L10.3902 11.0518C10.4294 11.2153 10.4193 11.3867 10.3611 11.5445C10.303 11.7023 10.1993 11.8393 10.0633 11.9382C9.92737 12.0371 9.76512 12.0935 9.59711 12.1002C9.4291 12.1069 9.26285 12.0637 9.11938 11.976L6.50004 10.364L3.87915 11.976C3.7357 12.0632 3.56965 12.106 3.40193 12.099C3.23421 12.092 3.0723 12.0356 2.9366 11.9368C2.8009 11.8379 2.69748 11.7012 2.63935 11.5437C2.58122 11.3862 2.57099 11.215 2.60994 11.0518L3.32364 8.03978L0.989578 6.02574C0.862656 5.91604 0.770863 5.77139 0.725664 5.60983C0.680465 5.44828 0.683862 5.27699 0.735432 5.11736C0.787002 4.95772 0.884458 4.81682 1.01563 4.71224C1.1468 4.60767 1.30588 4.54405 1.47299 4.52935L4.53321 4.28245L5.71372 1.42556C5.77762 1.26986 5.88638 1.13668 6.02616 1.04295C6.16595 0.949217 6.33045 0.89917 6.49875 0.89917C6.66705 0.89917 6.83155 0.949217 6.97133 1.04295C7.11112 1.13668 7.21987 1.26986 7.28377 1.42556L8.46377 4.28245L11.524 4.52935C11.6914 4.54351 11.851 4.60677 11.9826 4.7112C12.1143 4.81563 12.2122 4.95659 12.2641 5.11642C12.316 5.27624 12.3195 5.44783 12.2743 5.60968C12.2291 5.77153 12.1372 5.91644 12.01 6.02626L12.0131 6.02574Z" fill="white"/>
</svg>
