<svg width="27" height="27" viewBox="0 0 27 27" fill="none" xmlns="http://www.w3.org/2000/svg">
<g clip-path="url(#clip0_38_2125)">
<path d="M13.1521 0.5C6.09771 0.5 0.379211 6.2185 0.379211 13.2728C0.379211 20.3272 6.09771 26.0457 13.1521 26.0457C20.2064 26.0457 25.9249 20.3272 25.9249 13.2728C25.9249 6.2185 20.2064 0.5 13.1521 0.5ZM10.0254 18.5669H7.43886V10.2433H10.0254V18.5669ZM8.71614 9.22145C7.89921 9.22145 7.371 8.64268 7.371 7.92687C7.371 7.19642 7.91518 6.63495 8.7494 6.63495C9.58363 6.63495 10.0945 7.19642 10.1105 7.92687C10.1105 8.64268 9.58363 9.22145 8.71614 9.22145ZM19.4719 18.5669H16.8854V13.954C16.8854 12.8803 16.5102 12.1512 15.5749 12.1512C14.8604 12.1512 14.436 12.6448 14.2484 13.1198C14.1792 13.2888 14.1619 13.5283 14.1619 13.7664V18.5656H11.5741V12.8976C11.5741 11.8585 11.5408 10.9897 11.5062 10.2419H13.7534L13.8719 11.3981H13.9237C14.2644 10.8553 15.0986 10.0543 16.4943 10.0543C18.196 10.0543 19.4719 11.1946 19.4719 13.6454V18.5669Z" fill="white"/>
</g>
<defs>
<clipPath id="clip0_38_2125">
<rect width="26" height="26" fill="white" transform="translate(0.339996 0.25)"/>
</clipPath>
</defs>
</svg>
