<svg width="12" height="13" viewBox="0 0 12 13" fill="none" xmlns="http://www.w3.org/2000/svg">
<path d="M11.6975 5.99191L9.28541 8.14948L10.0203 11.3761C10.0608 11.5513 10.0504 11.735 9.9903 11.904C9.93019 12.073 9.8231 12.2197 9.68257 12.3257C9.54204 12.4316 9.37437 12.492 9.20074 12.4993C9.02711 12.5065 8.85531 12.4602 8.70704 12.3663L6.00011 10.6393L3.29157 12.3663C3.14332 12.4597 2.97172 12.5055 2.79839 12.498C2.62506 12.4905 2.45774 12.43 2.3175 12.3242C2.17727 12.2183 2.07038 12.0718 2.01031 11.9031C1.95023 11.7344 1.93966 11.551 1.97991 11.3761L2.71748 8.14948L0.305367 5.99191C0.174201 5.8744 0.0793386 5.71944 0.032628 5.54637C-0.0140826 5.3733 -0.0105715 5.18981 0.0427227 5.0188C0.096017 4.84779 0.196733 4.69684 0.332291 4.58481C0.46785 4.47278 0.632244 4.40464 0.804944 4.38888L3.9675 4.12439L5.18749 1.0639C5.25353 0.897107 5.36592 0.754435 5.51038 0.654024C5.65484 0.553614 5.82484 0.5 5.99877 0.5C6.1727 0.5 6.3427 0.553614 6.48716 0.654024C6.63162 0.754435 6.74401 0.897107 6.81004 1.0639L8.0295 4.12439L11.1921 4.38888C11.3651 4.40405 11.53 4.47182 11.666 4.58369C11.8021 4.69557 11.9033 4.84657 11.9569 5.01779C12.0105 5.18901 12.0142 5.37282 11.9675 5.5462C11.9208 5.71959 11.8258 5.87482 11.6943 5.99247L11.6975 5.99191Z" fill="white"/>
</svg>
