<svg width="28" height="27" viewBox="0 0 28 27" fill="none" xmlns="http://www.w3.org/2000/svg">
<g clip-path="url(#clip0_38_2127)">
<path d="M14.3577 0.5C7.3034 0.5 1.5849 6.2185 1.5849 13.2728C1.5849 20.3272 7.3034 26.0457 14.3577 26.0457C21.412 26.0457 27.1305 20.3272 27.1305 13.2728C27.1305 6.2185 21.412 0.5 14.3577 0.5ZM19.5533 10.9631C19.5586 11.0722 19.56 11.1813 19.56 11.2877C19.56 14.614 17.0307 18.4472 12.4032 18.4472C11.0358 18.4494 9.69693 18.0567 8.54742 17.3162C8.743 17.3402 8.94391 17.3495 9.14747 17.3495C10.3263 17.3495 11.4106 16.949 12.2715 16.2731C11.7469 16.2628 11.2386 16.0891 10.8174 15.7762C10.3962 15.4633 10.0832 15.0268 9.92183 14.5275C10.2986 14.5991 10.6867 14.5841 11.0567 14.4836C10.4874 14.3684 9.97532 14.0599 9.60744 13.6103C9.23957 13.1607 9.03852 12.5977 9.03837 12.0168V11.9862C9.37765 12.1738 9.76616 12.2883 10.1786 12.3016C9.64481 11.9462 9.26693 11.4004 9.12225 10.7756C8.97757 10.1509 9.07703 9.49453 9.40027 8.94071C10.0322 9.71772 10.8203 10.3534 11.7134 10.8065C12.6066 11.2596 13.585 11.5201 14.5852 11.5711C14.4581 11.0313 14.5128 10.4647 14.7409 9.95922C14.969 9.45376 15.3577 9.03782 15.8466 8.77608C16.3355 8.51433 16.8972 8.42144 17.4443 8.51185C17.9915 8.60226 18.4934 8.87089 18.8721 9.276C19.4351 9.1646 19.9751 8.95808 20.4687 8.6653C20.2811 9.24823 19.8882 9.74324 19.3631 10.0583C19.8618 9.99826 20.3488 9.86418 20.808 9.66051C20.4707 10.166 20.0458 10.6071 19.5533 10.9631Z" fill="white"/>
</g>
<defs>
<clipPath id="clip0_38_2127">
<rect width="27" height="26" fill="white" transform="translate(0.670013 0.25)"/>
</clipPath>
</defs>
</svg>
