<svg width="15" height="15" viewBox="0 0 15 15" fill="none" xmlns="http://www.w3.org/2000/svg">
<path d="M14.6258 6.89378L11.6423 9.46819L12.5513 13.3182C12.6015 13.5272 12.5885 13.7464 12.5142 13.948C12.4398 14.1497 12.3074 14.3248 12.1336 14.4512C11.9598 14.5777 11.7524 14.6497 11.5376 14.6584C11.3229 14.667 11.1104 14.6118 10.927 14.4997L7.57884 12.4391L4.22872 14.4997C4.04535 14.6111 3.83311 14.6658 3.61872 14.6569C3.40433 14.6479 3.19738 14.5758 3.02393 14.4494C2.85047 14.3231 2.71827 14.1483 2.64396 13.947C2.56966 13.7457 2.55658 13.5269 2.60637 13.3182L3.51865 9.46819L0.535171 6.89378C0.372935 6.75356 0.255602 6.56866 0.197827 6.36215C0.140052 6.15565 0.144395 5.9367 0.210313 5.73265C0.276232 5.5286 0.400804 5.3485 0.568473 5.21482C0.736142 5.08115 0.939476 4.99984 1.15308 4.98104L5.06476 4.66545L6.57374 1.01367C6.65541 0.814649 6.79443 0.644412 6.97311 0.524602C7.15178 0.404792 7.36205 0.34082 7.57718 0.34082C7.79231 0.34082 8.00258 0.404792 8.18125 0.524602C8.35993 0.644412 8.49895 0.814649 8.58062 1.01367L10.0889 4.66545L14.0006 4.98104C14.2146 4.99914 14.4186 5.08 14.5869 5.21349C14.7551 5.34697 14.8803 5.52715 14.9466 5.73145C15.0129 5.93575 15.0175 6.15507 14.9597 6.36195C14.902 6.56883 14.7844 6.75407 14.6218 6.89444L14.6258 6.89378Z" fill="#A41CF7"/>
</svg>
