<svg width="24" height="24" viewBox="0 0 24 24" fill="none" xmlns="http://www.w3.org/2000/svg">
<path d="M20.7672 12.0267L12.9788 19.8151C11.8976 20.8684 10.4451 21.4535 8.9357 21.4437C7.42628 21.4339 5.98148 20.8299 4.91415 19.7626C3.84681 18.6953 3.24284 17.2505 3.23302 15.741C3.22319 14.2316 3.80831 12.7791 4.86167 11.698L12.8827 3.67689C13.6003 2.95929 14.5736 2.55615 15.5884 2.55615C16.6033 2.55615 17.5765 2.95929 18.2941 3.67689C19.0117 4.39449 19.4149 5.36776 19.4149 6.3826C19.4149 7.39743 19.0117 8.3707 18.2941 9.0883L10.5044 16.878C10.1456 17.2368 9.65898 17.4384 9.15156 17.4384C8.64415 17.4384 8.15751 17.2368 7.79871 16.878C7.43991 16.5192 7.23834 16.0326 7.23834 15.5252C7.23834 15.0178 7.43991 14.5311 7.79871 14.1723L15.3557 6.61529" stroke="white" stroke-width="1.5" stroke-linecap="round"/>
</svg>
