<svg width="26" height="28" viewBox="0 0 26 28" fill="none" xmlns="http://www.w3.org/2000/svg">
<g clip-path="url(#clip0_38_2122)">
<path d="M12.9463 26.7728C20.0005 26.7728 25.7191 21.0542 25.7191 14C25.7191 6.94575 20.0005 1.22717 12.9463 1.22717C5.8921 1.22717 0.173523 6.94575 0.173523 14C0.173523 21.0542 5.8921 26.7728 12.9463 26.7728Z" fill="white"/>
<path fill-rule="evenodd" clip-rule="evenodd" d="M12.9463 7.90784C13.5974 7.90784 14.2652 7.92459 14.9125 7.952L15.6771 7.98856L16.4089 8.03196L17.0942 8.07842L17.7202 8.12715C18.3995 8.17915 19.0387 8.46903 19.5254 8.94581C20.0121 9.42259 20.315 10.0557 20.3809 10.7338L20.4114 11.0575L20.4685 11.7504C20.5218 12.4686 20.5614 13.2514 20.5614 14C20.5614 14.7485 20.5218 15.5314 20.4685 16.2495L20.4114 16.9425C20.4015 17.0536 20.3916 17.161 20.3809 17.2661C20.315 17.9443 20.0119 18.5775 19.5251 19.0543C19.0383 19.5311 18.3989 19.8209 17.7194 19.8728L17.095 19.9207L16.4096 19.968L15.6771 20.0114L14.9125 20.0479C14.2575 20.0764 13.6019 20.0911 12.9463 20.0921C12.2906 20.0911 11.6351 20.0764 10.98 20.0479L10.2155 20.0114L9.48366 19.968L8.7983 19.9207L8.17233 19.8728C7.49302 19.8208 6.85381 19.5309 6.36714 19.0541C5.88047 18.5773 5.57753 17.9442 5.5116 17.2661L5.48114 16.9425L5.42403 16.2495C5.3658 15.501 5.33481 14.7507 5.33112 14C5.33112 13.2514 5.37072 12.4686 5.42403 11.7504L5.48114 11.0575C5.49104 10.9463 5.50094 10.8389 5.5116 10.7338C5.5775 10.0558 5.88034 9.42281 6.36685 8.94604C6.85336 8.46928 7.4924 8.17932 8.17157 8.12715L8.79678 8.07842L9.48214 8.03196L10.2147 7.98856L10.9793 7.952C11.6346 7.92355 12.2904 7.90882 12.9463 7.90784ZM11.4232 12.1533V15.8466C11.4232 16.1985 11.804 16.4178 12.1086 16.2426L15.307 14.3959C15.3766 14.3559 15.4344 14.2982 15.4746 14.2287C15.5148 14.1591 15.5359 14.0803 15.5359 14C15.5359 13.9197 15.5148 13.8408 15.4746 13.7712C15.4344 13.7017 15.3766 13.644 15.307 13.604L12.1086 11.7581C12.0391 11.7179 11.9603 11.6968 11.8801 11.6968C11.7998 11.6969 11.721 11.718 11.6516 11.7581C11.5821 11.7983 11.5244 11.856 11.4843 11.9255C11.4443 11.995 11.4232 12.0731 11.4232 12.1533Z" fill="#212022"/>
</g>
<defs>
<clipPath id="clip0_38_2122">
<rect width="26" height="27" fill="white" transform="translate(0.0100098 0.25)"/>
</clipPath>
</defs>
</svg>
